. 
  
http://www.torrenting.com/        :     Greatest Movie Tracker on The Net!!!
 
http://www.Torrenting.com          :     Once & For all ;)


               www . Torrenting . Com 

(((((((((((((= Enjoy No RAR releases =))))))))))))))))))))


...................................NFO:....................................

.[img]http://img189.imageshack.us/img189/1494/thor2011po.jpg[/img]

[color=blue][size=5][b]Thor.2011.TS.XVID.AC3.Hive-CM8[/b][/size][/color]


[b]Thx Hive

CM8 Doing It Right The First Time :D


Sources:
Video: French TS 
Thor.2011.TRUEFRENCH.TS.MD.XviD-RESOLUTiON
Audio: Imagines Line (very good line)

Encode:
again a bit late this release- but hey i cant do all at once ;)
the french video was very good to begin with, just had some flaws, some scenes were very reddish the other scenes good or too less colour.
There is no way for one setting for the complete movie so i had to cut the movie in parts and do every part differently as needed.
Video is shorter than imagines version but only because i didnt add the endcredits.
only the bonuspart after the encredits is attached right afterwards at the end of the movie.
Audio is synced back to the french video, there were still some minor issues around +-200ms to get everything insync.
everything looks good now.
enjoy

Video: 720x306 @bitrate 1800 2pass
Audio: English AC3 2.0 Stereo
Sample: yes included[/b]


[url]http://www.imdb.com/title/tt0800369/[/url]


General
Complete name                    : Thor.2011.TS.XVID.AC3.HQ.Hive-CM8.avi
Format                           : AVI
Format/Info                      : Audio Video Interleave
File size                        : 1.54 GiB
Duration                         : 1h 41mn
Overall bit rate                 : 2 185 Kbps
Writing application              : Nandub v1.0rc2
Writing library                  : Nandub build 1853/release

Video
ID                               : 0
Format                           : MPEG-4 Visual
Format profile                   : Advanced Simple@L5
Format settings, BVOP            : 2
Format settings, QPel            : Yes
Format settings, GMC             : No warppoints
Format settings, Matrix          : Default (H.263)
Muxing mode                      : Packed bitstream
Codec ID                         : XVID
Codec ID/Hint                    : XviD
Duration                         : 1h 41mn
Bit rate                         : 1 919 Kbps
Width                            : 720 pixels
Height                           : 306 pixels
Display aspect ratio             : 2.35:1
Frame rate                       : 25.000 fps
Color space                      : YUV
Chroma subsampling               : 4:2:0
Bit depth                        : 8 bits
Scan type                        : Progressive
Compression mode                 : Lossy
Bits/(Pixel*Frame)               : 0.348
Stream size                      : 1.35 GiB (88%)
Writing library                  : XviD 1.2.1 (UTC 2008-12-04)

Audio
ID                               : 1
Format                           : AC-3
Format/Info                      : Audio Coding 3
Mode extension                   : CM (complete main)
Codec ID                         : 2000
Duration                         : 1h 41mn
Bit rate mode                    : Constant
Bit rate                         : 256 Kbps
Channel(s)                       : 2 channels
Channel positions                : Front: L R
Sampling rate                    : 48.0 KHz
Bit depth                        : 16 bits
Compression mode                 : Lossy
Stream size                      : 185 MiB (12%)
Alignment                        : Split accross interleaves
Interleave, duration             : 40 ms (1.00 video frame)
Interleave, preload duration     : 500 ms



Chris Hemsworth	 ... 	Thor
Natalie Portman	... 	Jane Foster
Tom Hiddleston	... 	Loki
Anthony Hopkins	... 	Odin
Stellan Skarsgard ... 	Erik Selvig
Kat Dennings	... 	Darcy Lewis
Clark Gregg	... 	Agent Coulson


The powerful but arrogant warrior Thor is cast out of the fantastic realm of 
Asgard and sent to live amongst humans on Earth, where he soon becomes one of their finest defenders. 


[img]http://img5.imageshack.us/img5/6054/14262841.png[/img]
[img]http://img834.imageshack.us/img834/5986/tthh.png[/img]
[img]http://img802.imageshack.us/img802/2614/ttthhh.png[/img]
[img]http://img845.imageshack.us/img845/9954/ttththhh.png[/img]
[img]http://img146.imageshack.us/img146/3974/ttthththhh.png[/img]
[img]http://img542.imageshack.us/img542/3892/ttththththhh.png[/img]
[img]http://img689.imageshack.us/img689/3973/ttthththththhh.png[/img]
[img]http://img713.imageshack.us/img713/47/ttththththththhh.png[/img]
[img]http://img600.imageshack.us/img600/3973/ttthththththtthhhh.png[/img]
[img]http://img594.imageshack.us/img594/9456/ttthththththtththhhh.png[/img]
[img]http://img64.imageshack.us/img64/5568/ttthththtththtththhhh.png[/img]
[img]http://img29.imageshack.us/img29/2487/ttthththtththtthththhhh.png[/img]






Greetz

ViSiON,LUSi,SANTi,MAGNET,THC,T0XiCiNK,LKRG,IMAGiNE,WBZ,FLAWL3SS,NOVA
Vik,OneTwo,Rapeseed,D2U,SAFC,goldadvance,MEMORY100,KaN1vE,Unevano,Pinnz,Wayne,Mr Hive
and all P2P groups 
Great Work Guys :D

CM8@hushmail.com